<?xml version="1.0" encoding="UTF-8"?>
<svg id="Layer_2" data-name="Layer 2" xmlns="http://www.w3.org/2000/svg" viewBox="0 0 495.2 521.86">
  <g id="Layer_1-2" data-name="Layer 1">
    <g>
      <path d="M108.73,401.19l-9.39-22.23c9.37-5.04,15.74-14.94,15.74-26.33,0-9.03-4-17.12-10.33-22.6-5.24-4.54-12.08-7.28-19.55-7.28h-36.1c-1.33,0-2.31,1.25-2,2.54l1.29,5.37v71.35l-1.5,8.88c-.21,1.26.76,2.4,2.03,2.4h22.83c1.27,0,2.24-1.14,2.03-2.4l-1.5-8.88v-19.54c2.04,0,4.39.01,6.59.02l8.08,20.02,4.39,10.78h1.37s7.68,0,7.68,0h11.42c1.27,0,2.24-1.14,2.03-2.4l-5.1-9.7ZM70.48,365.62v-26.94s9.01,0,11.85,0c10.82,0,10.89,26.94,0,26.94h-11.85Z"/>
      <path d="M361.13,330.03c-5.24-4.54-12.08-7.28-19.55-7.28h-36.1c-1.33,0-2.31,1.25-2,2.54l1.29,5.37v71.35l-1.5,8.88c-.21,1.26.76,2.4,2.03,2.4h22.83c1.27,0,2.24-1.14,2.03-2.4l-1.5-8.88v-19.54c4.47,0,10.51.05,12.92.05,16.5,0,29.88-13.38,29.88-29.88,0-9.03-4-17.12-10.33-22.6ZM342.04,365.62h-11.85v-26.94s9.01,0,11.85,0c10.82,0,10.89,26.94,0,26.94Z"/>
      <path d="M37.97,410.89l-1.5-8.88v-71.35l1.29-5.37c.31-1.29-.67-2.54-2-2.54H13.29c-1.33,0-2.31,1.25-2,2.54l1.29,5.37v71.35l-1.5,8.88c-.21,1.26.76,2.4,2.03,2.4h22.83c1.27,0,2.24-1.14,2.03-2.4Z"/>
      <path d="M184.96,335.48c-6.58-10.1-18.15-14.25-29.11-14.25s-22.91,3.99-29.49,14.09c-5.33,8.17-6.41,21.17-6.41,32.74s1.06,24.46,6.64,32.72c6.58,9.72,18.53,14.11,29.25,14.11s22.21-3.62,28.79-13.35c5.59-8.25,7.11-21.61,7.11-33.48s-1.46-24.41-6.79-32.58ZM166.61,390.3c-2.45,6.36-6.72,8.73-10.7,8.73s-8.43-2.87-10.88-9.24c-2.08-5.4-2.47-13.64-2.47-21.41s.4-16.08,2.38-21.43c2.45-6.61,6.89-9.22,10.97-9.22s8.38,2.72,10.82,9.32c1.98,5.35,2.52,13.75,2.52,21.32s-.57,16.51-2.64,21.91Z"/>
      <path d="M269.62,410.89l-1.5-8.88v-71.35l1.29-5.37c.31-1.29-.67-2.54-2-2.54h-20.42c-1.33,0-2.31,1.25-2,2.54l1.29,5.37v41.59l-20.49-42.24-3.39-6.99v-.27h-21.12c-1.33,0-2.31,1.25-2,2.54l1.29,5.37v71.35l-1.5,8.88c-.21,1.26.76,2.4,2.03,2.4h20.77c1.27,0,2.24-1.14,2.03-2.4l-1.5-8.88v-34.32l16.5,33.05c5.34,9.84,4.86,8.99,5.4,9.94.72,1.4,2.08,2.35,3.61,2.56.14.03.28.05.43.05h19.24c1.27,0,2.24-1.14,2.03-2.4Z"/>
      <path d="M405.47,410.89l-1.5-8.88v-71.35l1.29-5.37c.31-1.29-.67-2.54-2-2.54h-22.47c-1.33,0-2.31,1.25-2,2.54l1.29,5.37v71.35l-1.5,8.88c-.21,1.26.76,2.4,2.03,2.4h22.83c1.27,0,2.24-1.14,2.03-2.4Z"/>
      <path d="M51.02,429.79h16.81c52.2,58.78,135.46,86.87,213.21,74.65,53.24-8.36,102.89-35.34,139.36-74.65h15.78l.95,1.61c-37.56,48.19-96.93,79.87-157.44,88.15-79.83,10.92-167.76-17.32-221.47-78.09-2.73-3.09-7.11-7.54-7.19-11.67Z"/>
      <path d="M478.16,294.46c1.52-1.28,2.13-6.24,2.28-8.34,1.85-24.93.04-60.17-4.47-84.76C440.67,8.89,192.55-49.74,67.13,97.11,26.72,144.42,13.76,200.01,13.95,261.43c.02,7.82-.12,20.7.71,28.09.52,4.57,2.75,6.02,7.2,6.52,11.32,1.27,24.53-1.2,36.05.3,4.32,1.35,4.91,9.69.63,10.96l-51.1.41c-4.82-.57-6.14-3.4-6.53-7.88-3.62-76.72,1.63-143.25,49.83-205.39C168.23-57.02,417.14-20.36,480.43,161.92c13.85,39.9,16.66,91.68,13.73,133.8-.27,3.85-.86,10.68-5.34,11.81l-52.63.15c-5.71-2.36-4.67-9.47.68-11.63,11.65-.89,24.89,1.14,36.34-.01,1.29-.13,4.01-.79,4.94-1.58Z"/>
      <path d="M161.11,52.53c11.2,1.19,27.17,8.26,37.16,13.6,26.44,14.13,48.74,35.58,67.79,58.42,1.03-.54-.2-1.65-.46-2.28-2.66-6.35-7.19-14.12-10.74-20.13-15.24-25.8-35.18-47.34-58.42-66.07,2.26-2.78,23.91,7.26,27.45,9.24,29.73,16.64,49.58,47.03,66.18,75.81.05-2.06-.92-4.68-1.54-6.7-6.31-20.67-16.94-40.35-28.84-58.27l-11.81-15.96c34.83,10.75,53.65,47.81,65.85,79.56,1.31.15.44-1.34.35-2.06-3.27-25.9-13.49-50.68-27.11-72.69,27.82,12.2,40.36,43.83,48.02,71.33,1.19.16.65-1.56.68-2.39.69-17.85-5.35-37.22-10.3-54.19l9.59,8.93c13.23,16.04,19.57,38.72,22.57,59.06.32,2.17-.66,4.8,1.12,6.43,4.17-16.05,2.35-33.09.35-49.38,4.8,4.15,8.99,10.83,12.01,16.45,8.04,14.94,12.22,31.94,14.4,48.7,17.95,12.92,27.13,34.01,41.82,50.1,5.06,5.54,10.32,11.15,18.2,11.98,2.82,2.13-2.18,10.55-3.58,12.92-23.86,40.58-60.5-3.92-96.76,8.19-16.25,5.42-43.08,33.28-42.9,50.94.08,8.14,5.4,5.68,10.43,6.58,9.25,1.65,19.62,6.24,19.62,17.08h-50.42c-1.1-.98-2.05-2.06-2.97-3.2-5.85-7.27-23.44-34.68-23.44-43.1v-13.72c0-.23,1.85-3.63-.33-1.71-5.15,7.24-4.15,15.8-4.12,24.01-1.04,1.73-18.41,4.42-22.09,6.02s-4.16,3.24-3.3,7.02c1.23,5.45,12.78,6.25,17.5,8.55,5.86,2.87,9.34,9.68,9.61,16.12h-49.04l-17.48-36.72c.04-1.65,9.68-8.82,11.66-10.94,5.02-5.36,9.79-12.67,12.32-19.57-13.28,16.61-31.65,28.68-52.13,34.64-13.7,3.99-29.79,4.26-40.47,14.74,9.58,1.77,20.51,7.14,21.95,17.84h-58.65c-4.61-7.73-2.42-20.87.32-29.18,5.59-16.91,20.99-31.97,36.18-40.64,4.39-2.51,9.34-4.08,13.23-7-17.14,2.08-34.14,5.62-50.6,10.79-9.01,2.83-17.75,7.21-26.44,9.91-.68.21-2.05,1.16-2.52.22,23.27-31.19,63.69-43.02,100.83-47.33-.78-1.14-1.87-.98-3.04-1.07-26.7-2.01-52.36-1.69-78.71,3.68l-27.99,6.3c14.54-15.13,34.79-23.86,55-28.69,21.71-5.18,46.51-6.53,68.84-5.3,2.52.14,5.15,1.08,7.61,1.31.77.07,2.46.63,2.31-.59-12.77-3.95-25.62-7.39-38.87-9.5-19.72-3.14-40.98-4.43-60.96-3.57-9,.39-18.06,2.17-27.06,2.43,8.01-6.76,18.32-11.19,28.28-14.25,31.49-9.69,67.68-8.04,99.44-.3l20.43,5.63c-30.45-19.34-69.39-30.41-105.29-33.95-6.6-.65-13.88-.14-20.2-.95-1.16-.15-1.98.2-.72-1.1,47.93-19.6,104.25-4.75,148.15,18.51l-3.78-4.1c-31.29-24.7-67.07-45.05-105.96-54.89,2.12-2.15,7.62-2.52,10.64-2.73,43.34-3.01,87.64,22.91,120.37,48.69l-10.62-13.73c-15.45-15.98-31.61-31.24-49.52-44.45l-29.03-19.33c3.2.24,6.8-.33,9.95,0ZM351.45,168.45c-.89-9.15-10.62-15.97-19.02-10.45-9.37,6.16-5.06,25.28,6.68,26.22-4.9-3.66-7.12-9.1-6.01-15.27,1.34-7.45,10.72-8.59,15.78-3.94,1.21,1.11,1.25,2.93,2.58,3.44ZM389.86,182.87c-13.48-6.09-15.3,16.8-.68,13.01.07-1.91-2.07-1.76-2.56-3.94-1.11-4.93,1.6-5.29,3.24-9.07Z"/>
      <path d="M366.89,307.7c-9.65-1.6-29.59-27.48-40.61-34.16-1.8-1.09-10.98-4.9-11.06-5.96,8.32-13.73,20.57-26.39,36.54-30.56,3.15,8.88,6.62,17.86,10.77,26.34,3.12,6.38,7.77,15.93,13.29,20.32,10.29,8.16,32.85,5.58,32.57,24.02h-41.5Z"/>
      <path d="M485.67,362.15h-30.57c-1.14,0-2.06.92-2.06,2.06v11.68c0,1.14.93,2.07,2.08,2.06l7.38-.06h0c-.36,4.72-1.06,9.18-2.31,12.42-2.45,6.36-6.72,8.73-10.7,8.73s-8.43-2.87-10.88-9.24c-2.08-5.4-2.47-13.64-2.47-21.41s.4-16.08,2.38-21.43c2.45-6.61,6.89-9.22,10.97-9.22s8.38,2.72,10.82,9.32c.39,1.05.72,2.21,1,3.47.21.94,1.04,1.62,2.01,1.62h18.43c1.29,0,2.27-1.17,2.02-2.44-1.04-5.38-2.7-10.34-5.24-14.23-6.58-10.1-18.15-14.25-29.11-14.25s-22.91,3.99-29.49,14.09c-5.33,8.17-6.41,21.17-6.41,32.74s1.06,24.46,6.64,32.72c6.58,9.72,18.53,14.11,29.25,14.11s22.21-3.62,28.79-13.35c5.26-7.78,6.92-20.08,7.09-31.42l.02-.06,2.36-5.37c.31-1.29-.67-2.54-2-2.54Z"/>
    </g>
  </g>
</svg>