<?xml version="1.0" encoding="UTF-8"?>
<svg id="Layer_2" data-name="Layer 2" xmlns="http://www.w3.org/2000/svg" viewBox="0 0 476.68 412.5">
  <defs>
    <style>
      .cls-1 {
        fill: #365f3c;
      }
    </style>
  </defs>
  <g id="Layer_1-2" data-name="Layer 1">
    <g>
      <path class="cls-1" d="M25.42,366.41v-71.35l1.29-5.37c.31-1.29-.67-2.54-2-2.54H2.24c-1.33,0-2.31,1.25-2,2.54l1.29,5.37v71.35L.03,375.29c-.21,1.26.76,2.4,2.03,2.4h22.83c1.27,0,2.24-1.15,2.03-2.4l-1.5-8.88Z"/>
      <path class="cls-1" d="M104.03,317.03c0-9.03-4-17.12-10.33-22.6-5.24-4.54-12.08-7.28-19.55-7.28h-36.1c-1.33,0-2.31,1.25-2,2.54l1.29,5.37v71.35l-1.5,8.88c-.21,1.26.76,2.4,2.03,2.4h22.83c1.27,0,2.24-1.15,2.03-2.4l-1.5-8.88v-19.54c2.04,0,4.39.01,6.59.02l8.08,20.02,4.39,10.78h1.37s7.68,0,7.68,0h11.42c1.27,0,2.24-1.15,2.03-2.4l-5.1-9.7-9.39-22.23c9.37-5.04,15.74-14.94,15.74-26.33ZM71.28,330.02h-11.85v-26.94s9.01,0,11.85,0c10.82,0,10.89,26.94,0,26.94Z"/>
      <path class="cls-1" d="M350.08,294.44c-5.24-4.54-12.08-7.28-19.55-7.28h-36.1c-1.33,0-2.31,1.25-2,2.54l1.29,5.37v71.35l-1.5,8.88c-.21,1.26.76,2.4,2.03,2.4h22.83c1.27,0,2.24-1.15,2.03-2.4l-1.5-8.88v-19.54c4.47,0,10.51.05,12.92.05,16.5,0,29.88-13.38,29.88-29.88,0-9.03-4-17.12-10.33-22.6ZM330.99,330.02h-11.85v-26.94s9.01,0,11.85,0c10.82,0,10.89,26.94,0,26.94Z"/>
      <path class="cls-1" d="M144.8,285.64c-10.96,0-22.91,3.99-29.49,14.09-5.33,8.17-6.41,21.17-6.41,32.74s1.06,24.46,6.64,32.72c6.58,9.72,18.53,14.11,29.25,14.11s22.21-3.62,28.79-13.35c5.59-8.25,7.11-21.61,7.11-33.48s-1.46-24.41-6.79-32.58c-6.58-10.1-18.15-14.25-29.11-14.25ZM155.56,354.7c-2.45,6.36-6.72,8.73-10.7,8.73s-8.43-2.87-10.88-9.24c-2.08-5.4-2.47-13.64-2.47-21.41s.4-16.08,2.38-21.43c2.45-6.61,6.89-9.22,10.97-9.22s8.38,2.72,10.82,9.32c1.98,5.35,2.52,13.75,2.52,21.32s-.57,16.51-2.64,21.91Z"/>
      <path class="cls-1" d="M237.3,377.69h19.24c1.27,0,2.24-1.14,2.03-2.4l-1.5-8.88v-71.35l1.29-5.37c.31-1.29-.67-2.54-2-2.54h-20.42c-1.33,0-2.31,1.25-2,2.54l1.29,5.37v41.59l-20.49-42.24-3.39-6.99v-.27h-21.12c-1.33,0-2.31,1.25-2,2.54l1.29,5.37v71.35l-1.5,8.88c-.21,1.26.76,2.4,2.03,2.4h20.77c1.27,0,2.24-1.15,2.03-2.4l-1.5-8.88v-34.32l16.5,33.05c5.34,9.84,4.86,8.99,5.4,9.94.72,1.4,2.08,2.35,3.61,2.56.14.03.28.05.43.05Z"/>
      <path class="cls-1" d="M392.92,366.41v-71.35l1.29-5.37c.31-1.29-.67-2.54-2-2.54h-22.47c-1.33,0-2.31,1.25-2,2.54l1.29,5.37v71.35l-1.5,8.88c-.21,1.26.76,2.4,2.03,2.4h22.83c1.27,0,2.24-1.15,2.03-2.4l-1.5-8.88Z"/>
      <path class="cls-1" d="M162.5,145.12c-2.46-.23-5.09-1.17-7.61-1.31-22.33-1.24-47.12.11-68.84,5.3-20.2,4.82-40.45,13.55-55,28.69l27.99-6.3c26.34-5.38,52.01-5.7,78.71-3.69,1.17.09,2.27-.07,3.04,1.07-37.14,4.3-77.56,16.14-100.83,47.33.47.94,1.84,0,2.52-.22,8.69-2.7,17.43-7.09,26.44-9.91,16.46-5.17,33.46-8.71,50.6-10.79-3.88,2.92-8.83,4.5-13.23,7-15.19,8.67-30.6,23.73-36.18,40.64-2.74,8.3-4.93,21.44-.32,29.18h58.65c-1.44-10.71-12.37-16.07-21.95-17.84,10.68-10.48,26.76-10.76,40.47-14.74,20.47-5.96,38.85-18.03,52.13-34.64-2.53,6.89-7.3,14.21-12.32,19.57-1.98,2.12-11.63,9.29-11.66,10.94l17.48,36.72h49.04c-.27-6.44-3.75-13.25-9.61-16.12-4.71-2.31-16.26-3.1-17.5-8.55-.86-3.78-.24-5.48,3.3-7.02,3.68-1.6,21.06-4.29,22.09-6.02-.04-8.22-1.04-16.77,4.12-24.01,2.18-1.93.33,1.48.33,1.71v13.72c0,8.42,17.59,35.83,23.44,43.1.92,1.15,1.87,2.22,2.97,3.2h50.42c0-10.84-10.37-15.43-19.62-17.08-5.03-.9-10.35,1.56-10.43-6.58-.17-17.66,26.65-45.52,42.9-50.94,36.27-12.1,72.9,32.4,96.76-8.19,1.39-2.37,6.39-10.79,3.58-12.92-7.88-.83-13.15-6.44-18.2-11.98-14.69-16.09-23.86-37.18-41.82-50.1-2.19-16.76-6.37-33.76-14.4-48.7-3.02-5.62-7.22-12.29-12.01-16.45,2.01,16.29,3.82,33.33-.35,49.38-1.77-1.63-.8-4.26-1.12-6.43-3-20.33-9.34-43.01-22.57-59.06l-9.59-8.93c4.94,16.97,10.99,36.34,10.3,54.19-.03.83.52,2.55-.68,2.39-7.66-27.49-20.21-59.12-48.02-71.33,13.62,22.02,23.84,46.8,27.11,72.69.09.73.96,2.21-.35,2.06-12.2-31.75-31.03-68.81-65.85-79.56l11.81,15.96c11.9,17.92,22.53,37.6,28.84,58.27.62,2.02,1.59,4.64,1.54,6.7-16.6-28.77-36.45-59.17-66.18-75.81-3.54-1.98-25.19-12.02-27.45-9.24,23.25,18.73,43.18,40.26,58.42,66.07,3.55,6.01,8.08,13.78,10.74,20.13.26.63,1.5,1.74.46,2.28-19.06-22.83-41.35-44.29-67.79-58.42-9.99-5.34-25.96-12.41-37.16-13.6-3.15-.33-6.74.24-9.95,0l29.03,19.33c17.92,13.21,34.07,28.47,49.52,44.45l10.62,13.73c-32.73-25.79-77.03-51.7-120.37-48.69-3.02.21-8.52.58-10.64,2.73,38.89,9.84,74.68,30.2,105.96,54.89l3.78,4.1c-43.9-23.26-100.22-38.11-148.15-18.51-1.26,1.3-.44.95.72,1.1,6.32.82,13.59.3,20.2.95,35.9,3.54,74.84,14.62,105.29,33.95l-20.43-5.63c-31.76-7.74-67.95-9.38-99.44.3-9.96,3.06-20.27,7.49-28.28,14.25,9-.26,18.06-2.04,27.06-2.43,19.98-.86,41.25.43,60.96,3.57,13.24,2.11,26.09,5.54,38.87,9.5.16,1.23-1.54.67-2.31.59ZM378.81,147.28c-1.64,3.78-4.36,4.15-3.24,9.07.49,2.17,2.63,2.03,2.56,3.94-14.62,3.79-12.8-19.1.68-13.01ZM321.38,122.41c8.4-5.52,18.13,1.3,19.02,10.45-1.32-.51-1.37-2.33-2.58-3.44-5.06-4.65-14.44-3.5-15.78,3.94-1.11,6.17,1.12,11.61,6.01,15.27-11.74-.94-16.05-20.06-6.68-26.22Z"/>
      <path class="cls-1" d="M364.77,248.08c-5.52-4.38-10.17-13.94-13.29-20.32-4.15-8.47-7.62-17.45-10.77-26.34-15.97,4.17-28.21,16.83-36.54,30.56.08,1.05,9.26,4.87,11.06,5.96,11.01,6.68,30.96,32.56,40.61,34.16h41.5c.29-18.44-22.28-15.86-32.57-24.02Z"/>
      <path class="cls-1" d="M474.62,326.56h-30.57c-1.14,0-2.06.92-2.06,2.06v11.68c0,1.14.93,2.07,2.08,2.06l7.38-.06h0c-.36,4.72-1.06,9.18-2.31,12.42-2.45,6.36-6.72,8.73-10.7,8.73s-8.43-2.87-10.88-9.24c-2.08-5.4-2.47-13.64-2.47-21.41s.4-16.08,2.38-21.43c2.45-6.61,6.89-9.22,10.97-9.22s8.38,2.72,10.82,9.32c.39,1.05.72,2.21,1,3.47.21.94,1.04,1.62,2.01,1.62h18.43c1.29,0,2.27-1.17,2.02-2.44-1.04-5.38-2.7-10.34-5.24-14.23-6.58-10.1-18.15-14.25-29.11-14.25s-22.91,3.99-29.49,14.09c-5.33,8.17-6.41,21.17-6.41,32.74s1.06,24.46,6.64,32.72c6.58,9.72,18.53,14.11,29.25,14.11s22.21-3.62,28.79-13.35c5.26-7.78,6.92-20.08,7.09-31.42l.02-.06,2.36-5.37c.31-1.29-.67-2.54-2-2.54Z"/>
      <path class="cls-1" d="M185.56,408.82v-3.19h4.1c1.31,0,1.96.04,2.85.13v-3.51c-1.14.11-1.6.13-2.85.13h-4.1v-2.79h4.94c1.27,0,1.96.04,2.83.13v-3.55c-.89.09-1.54.13-2.83.13h-6.06c-1.48,0-2.01-.02-2.79-.06.11.93.15,1.6.15,2.77v10.37c0,1.31-.04,2.01-.15,2.77.82-.04,1.35-.06,2.79-.06h5.98c1.63,0,2.32.04,3.13.13v-3.55c-.82.1-1.65.13-3.1.13h-4.9Z"/>
      <path class="cls-1" d="M206,403.48c-.72-.46-1.63-.78-3.08-1.08q-2.24-.46-2.62-.63c-.61-.29-.89-.68-.89-1.22,0-.87.86-1.5,2.01-1.5,1.44,0,2.13.51,2.36,1.75l4.03-.44c-.25-1.08-.47-1.65-.95-2.28-1.03-1.42-2.87-2.17-5.28-2.17-3.74,0-6.1,1.84-6.1,4.77,0,1.54.65,2.81,1.84,3.65.7.49,1.31.72,3.06,1.1,1.98.46,2.45.59,2.85.78.49.23.8.74.8,1.33,0,1.06-.87,1.71-2.34,1.71-.97,0-1.77-.32-2.22-.89-.29-.38-.42-.72-.49-1.41l-3.95.38c.13.87.23,1.31.42,1.77.4,1.08,1.1,1.9,2.05,2.43,1.03.59,2.62.93,4.24.93,2.22,0,3.89-.55,5-1.62.87-.85,1.33-2.07,1.33-3.5,0-1.75-.68-3.02-2.05-3.88Z"/>
      <path class="cls-1" d="M220.27,399.66c1.37,0,2.11.04,2.96.13v-3.63c-.87.09-1.63.13-2.96.13h-8.32c-1.16,0-2.2-.06-2.83-.13v3.63c1.35-.11,1.67-.13,2.87-.13h2.24v9.58c0,1.2-.04,1.98-.15,2.87h4.2c-.11-.89-.15-1.73-.15-2.87v-9.58h2.15Z"/>
      <rect class="cls-1" x="222.78" y="408.27" width="3.84" height="3.84"/>
      <path class="cls-1" d="M240.08,408.78c.44-.84,1.14-1.5,2.79-2.64,1.94-1.35,2.13-1.48,2.75-2.03,1.18-.97,1.75-2.15,1.75-3.53,0-.82-.21-1.56-.63-2.22-.95-1.54-2.91-2.39-5.47-2.39-2.22,0-3.95.68-5.04,1.96-.76.89-1.1,1.73-1.39,3.38l3.99.42c.09-.8.21-1.18.47-1.6.42-.65,1.06-.95,1.98-.95,1.22,0,2.03.61,2.03,1.52s-.4,1.37-2.03,2.47c-1.94,1.31-2.66,1.86-3.38,2.53-1.33,1.23-2.24,2.68-2.74,4.25-.23.74-.32,1.31-.4,2.24.7-.06,1.14-.08,2.85-.08h6.67c1.35,0,2.15.04,3.25.13v-3.59c-.74.09-1.61.13-3.04.13h-4.43Z"/>
      <path class="cls-1" d="M260.53,397.72c-1.16-1.14-2.77-1.77-4.62-1.77-2.39,0-4.37,1.06-5.53,3-.72,1.2-1.2,3.27-1.2,5.26,0,1.54.25,3,.74,4.35.29.76.76,1.48,1.39,2.11,1.16,1.16,2.74,1.77,4.6,1.77,2.41,0,4.41-1.06,5.55-2.96.72-1.2,1.2-3.29,1.2-5.28,0-1.56-.25-3.02-.74-4.37-.29-.76-.76-1.48-1.39-2.11ZM255.93,409.22c-1.88,0-2.85-1.75-2.85-5.15,0-3.1,1.04-4.9,2.83-4.9s2.83,1.71,2.83,4.96-.95,5.09-2.81,5.09Z"/>
      <path class="cls-1" d="M269.46,408.78c.44-.84,1.14-1.5,2.79-2.64,1.94-1.35,2.13-1.48,2.75-2.03,1.18-.97,1.75-2.15,1.75-3.53,0-.82-.21-1.56-.63-2.22-.95-1.54-2.91-2.39-5.47-2.39-2.22,0-3.95.68-5.04,1.96-.76.89-1.1,1.73-1.39,3.38l3.99.42c.09-.8.21-1.18.47-1.6.42-.65,1.06-.95,1.98-.95,1.22,0,2.03.61,2.03,1.52s-.4,1.37-2.03,2.47c-1.94,1.31-2.66,1.86-3.38,2.53-1.33,1.23-2.24,2.68-2.74,4.25-.23.74-.32,1.31-.4,2.24.7-.06,1.14-.08,2.85-.08h6.67c1.35,0,2.15.04,3.25.13v-3.59c-.74.09-1.61.13-3.04.13h-4.43Z"/>
      <path class="cls-1" d="M286.18,401.33c-1.24,0-2.22.29-3.08.91.04-.32.06-.51.06-.61l.19-2.28h4.41c1.22,0,2.09.04,3.1.13v-3.32c-.76.09-1.46.13-3.13.13h-5.68c-.91,0-1.1,0-1.9-.04-.02.72-.04,1.18-.08,1.58l-.51,5.93c-.06.53-.11.99-.19,1.56l3.53.34c.42-.93,1.2-1.41,2.39-1.41,1.6,0,2.62.99,2.62,2.51s-1.06,2.53-2.66,2.53c-1.37,0-2.17-.59-2.49-1.84l-3.82.59c.29.99.51,1.54.95,2.13,1.1,1.52,2.98,2.34,5.38,2.34,4.03,0,6.42-2.17,6.42-5.81,0-1.6-.47-2.83-1.42-3.8-1.01-1.03-2.39-1.56-4.08-1.56Z"/>
    </g>
  </g>
</svg>